<svg width="22" height="26" viewBox="0 0 22 26" fill="none" xmlns="http://www.w3.org/2000/svg">
<g opacity="0.5">
<path d="M17.9667 22.75L12.1917 15.925C11.7333 16.3583 11.2063 16.7014 10.6104 16.9542C10.0146 17.2069 9.38056 17.3333 8.70833 17.3333C7.04306 17.3333 5.63368 16.6517 4.48021 15.2885C3.32674 13.9253 2.75 12.2597 2.75 10.2917C2.75 8.32361 3.32674 6.65799 4.48021 5.29479C5.63368 3.9316 7.04306 3.25 8.70833 3.25C10.3736 3.25 11.783 3.9316 12.9365 5.29479C14.0899 6.65799 14.6667 8.32361 14.6667 10.2917C14.6667 11.0861 14.5597 11.8354 14.3458 12.5396C14.1319 13.2438 13.8417 13.8667 13.475 14.4083L19.25 21.2333L17.9667 22.75ZM8.70833 15.1667C9.85417 15.1667 10.8281 14.6927 11.6302 13.7448C12.4323 12.7969 12.8333 11.6458 12.8333 10.2917C12.8333 8.9375 12.4323 7.78646 11.6302 6.83854C10.8281 5.89063 9.85417 5.41667 8.70833 5.41667C7.5625 5.41667 6.58854 5.89063 5.78646 6.83854C4.98438 7.78646 4.58333 8.9375 4.58333 10.2917C4.58333 11.6458 4.98438 12.7969 5.78646 13.7448C6.58854 14.6927 7.5625 15.1667 8.70833 15.1667Z" fill="#1D1B20"/>
</g>
</svg>
