<svg width="52" height="50" viewBox="0 0 52 50" fill="none" xmlns="http://www.w3.org/2000/svg">
<path d="M12.6752 35.625C14.5168 34.2708 16.5752 33.2031 18.8502 32.4218C21.1252 31.6406 23.5085 31.25 26.0002 31.25C28.4918 31.25 30.8752 31.6406 33.1502 32.4218C35.4252 33.2031 37.4835 34.2708 39.3252 35.625C40.5891 34.2013 41.5731 32.5868 42.2772 30.7812C42.9814 28.9757 43.3335 27.0486 43.3335 25C43.3335 20.3819 41.6453 16.4496 38.2689 13.2031C34.8925 9.95656 30.8029 8.33329 26.0002 8.33329C21.1974 8.33329 17.1078 9.95656 13.7314 13.2031C10.355 16.4496 8.66683 20.3819 8.66683 25C8.66683 27.0486 9.01891 28.9757 9.72308 30.7812C10.4272 32.5868 11.4113 34.2013 12.6752 35.625ZM26.0002 27.0833C23.8696 27.0833 22.0731 26.3802 20.6106 24.9739C19.1481 23.5677 18.4168 21.8402 18.4168 19.7916C18.4168 17.743 19.1481 16.0156 20.6106 14.6093C22.0731 13.2031 23.8696 12.5 26.0002 12.5C28.1307 12.5 29.9272 13.2031 31.3897 14.6093C32.8522 16.0156 33.5835 17.743 33.5835 19.7916C33.5835 21.8402 32.8522 23.5677 31.3897 24.9739C29.9272 26.3802 28.1307 27.0833 26.0002 27.0833ZM26.0002 45.8333C23.0029 45.8333 20.1863 45.2864 17.5502 44.1927C14.9141 43.0989 12.621 41.6145 10.671 39.7395C8.721 37.8645 7.17725 35.6597 6.03975 33.125C4.90225 30.5902 4.3335 27.8819 4.3335 25C4.3335 22.118 4.90225 19.4097 6.03975 16.875C7.17725 14.3402 8.721 12.1354 10.671 10.2604C12.621 8.38538 14.9141 6.901 17.5502 5.80725C20.1863 4.7135 23.0029 4.16663 26.0002 4.16663C28.9974 4.16663 31.8141 4.7135 34.4502 5.80725C37.0863 6.901 39.3793 8.38538 41.3293 10.2604C43.2793 12.1354 44.8231 14.3402 45.9606 16.875C47.0981 19.4097 47.6668 22.118 47.6668 25C47.6668 27.8819 47.0981 30.5902 45.9606 33.125C44.8231 35.6597 43.2793 37.8645 41.3293 39.7395C39.3793 41.6145 37.0863 43.0989 34.4502 44.1927C31.8141 45.2864 28.9974 45.8333 26.0002 45.8333Z" fill="#1D1B20"/>
</svg>
