<svg width="45" height="44" viewBox="0 0 45 44" fill="none" xmlns="http://www.w3.org/2000/svg">
<path d="M22.5 25.6666C20.9375 25.6666 19.6094 25.1319 18.5156 24.0625C17.4219 22.993 16.875 21.6944 16.875 20.1666V9.16663C16.875 7.63885 17.4219 6.34024 18.5156 5.27079C19.6094 4.20135 20.9375 3.66663 22.5 3.66663C24.0625 3.66663 25.3906 4.20135 26.4844 5.27079C27.5781 6.34024 28.125 7.63885 28.125 9.16663V20.1666C28.125 21.6944 27.5781 22.993 26.4844 24.0625C25.3906 25.1319 24.0625 25.6666 22.5 25.6666ZM20.625 38.5V32.8625C17.375 32.4347 14.6875 31.0138 12.5625 28.6C10.4375 26.1861 9.375 23.375 9.375 20.1666H13.125C13.125 22.7027 14.0391 24.8645 15.8672 26.652C17.6953 28.4395 19.9063 29.3333 22.5 29.3333C25.0937 29.3333 27.3047 28.4395 29.1328 26.652C30.9609 24.8645 31.875 22.7027 31.875 20.1666H35.625C35.625 23.375 34.5625 26.1861 32.4375 28.6C30.3125 31.0138 27.625 32.4347 24.375 32.8625V38.5H20.625Z" fill="#1D1B20"/>
</svg>
