<svg width="25" height="25" viewBox="0 0 25 25" fill="none" xmlns="http://www.w3.org/2000/svg">
<path d="M4.16675 19.7917V17.7084H6.25008V10.4167C6.25008 8.97574 6.68411 7.69969 7.55216 6.58858C8.42022 5.46011 9.54869 4.72226 10.9376 4.37504V3.64587C10.9376 3.21185 11.0852 2.84726 11.3803 2.55212C11.6928 2.23962 12.0661 2.08337 12.5001 2.08337C12.9341 2.08337 13.2987 2.23962 13.5938 2.55212C13.9063 2.84726 14.0626 3.21185 14.0626 3.64587V4.37504C15.4515 4.72226 16.5799 5.46011 17.448 6.58858C18.3161 7.69969 18.7501 8.97574 18.7501 10.4167V17.7084H20.8334V19.7917H4.16675ZM12.5001 22.9167C11.9272 22.9167 11.4324 22.7171 11.0157 22.3177C10.6164 21.9011 10.4167 21.4063 10.4167 20.8334H14.5834C14.5834 21.4063 14.3751 21.9011 13.9584 22.3177C13.5591 22.7171 13.073 22.9167 12.5001 22.9167ZM8.33342 17.7084H16.6667V10.4167C16.6667 9.27087 16.2588 8.28997 15.4428 7.474C14.6268 6.65803 13.6459 6.25004 12.5001 6.25004C11.3542 6.25004 10.3733 6.65803 9.55737 7.474C8.7414 8.28997 8.33342 9.27087 8.33342 10.4167V17.7084Z" fill="#1D1B20"/>
</svg>
