<svg width="51" height="48" viewBox="0 0 51 48" fill="none" xmlns="http://www.w3.org/2000/svg">
<path d="M38.25 44C36.4792 44 34.974 43.4167 33.7344 42.25C32.4948 41.0833 31.875 39.6667 31.875 38C31.875 37.7667 31.8927 37.525 31.9281 37.275C31.9635 37.025 32.0167 36.8 32.0875 36.6L17.1063 28.4C16.5042 28.9 15.8313 29.2917 15.0875 29.575C14.3438 29.8583 13.5646 30 12.75 30C10.9792 30 9.47396 29.4167 8.23438 28.25C6.99479 27.0833 6.375 25.6667 6.375 24C6.375 22.3333 6.99479 20.9167 8.23438 19.75C9.47396 18.5833 10.9792 18 12.75 18C13.5646 18 14.3438 18.1417 15.0875 18.425C15.8313 18.7083 16.5042 19.1 17.1063 19.6L32.0875 11.4C32.0167 11.2 31.9635 10.975 31.9281 10.725C31.8927 10.475 31.875 10.2333 31.875 10C31.875 8.33333 32.4948 6.91667 33.7344 5.75C34.974 4.58333 36.4792 4 38.25 4C40.0208 4 41.526 4.58333 42.7656 5.75C44.0052 6.91667 44.625 8.33333 44.625 10C44.625 11.6667 44.0052 13.0833 42.7656 14.25C41.526 15.4167 40.0208 16 38.25 16C37.4354 16 36.6563 15.8583 35.9125 15.575C35.1688 15.2917 34.4958 14.9 33.8937 14.4L18.9125 22.6C18.9833 22.8 19.0365 23.025 19.0719 23.275C19.1073 23.525 19.125 23.7667 19.125 24C19.125 24.2333 19.1073 24.475 19.0719 24.725C19.0365 24.975 18.9833 25.2 18.9125 25.4L33.8937 33.6C34.4958 33.1 35.1688 32.7083 35.9125 32.425C36.6563 32.1417 37.4354 32 38.25 32C40.0208 32 41.526 32.5833 42.7656 33.75C44.0052 34.9167 44.625 36.3333 44.625 38C44.625 39.6667 44.0052 41.0833 42.7656 42.25C41.526 43.4167 40.0208 44 38.25 44ZM38.25 12C38.8521 12 39.3568 11.8083 39.7641 11.425C40.1714 11.0417 40.375 10.5667 40.375 10C40.375 9.43333 40.1714 8.95833 39.7641 8.575C39.3568 8.19167 38.8521 8 38.25 8C37.6479 8 37.1432 8.19167 36.7359 8.575C36.3286 8.95833 36.125 9.43333 36.125 10C36.125 10.5667 36.3286 11.0417 36.7359 11.425C37.1432 11.8083 37.6479 12 38.25 12ZM12.75 26C13.3521 26 13.8568 25.8083 14.2641 25.425C14.6714 25.0417 14.875 24.5667 14.875 24C14.875 23.4333 14.6714 22.9583 14.2641 22.575C13.8568 22.1917 13.3521 22 12.75 22C12.1479 22 11.6432 22.1917 11.2359 22.575C10.8286 22.9583 10.625 23.4333 10.625 24C10.625 24.5667 10.8286 25.0417 11.2359 25.425C11.6432 25.8083 12.1479 26 12.75 26ZM38.25 40C38.8521 40 39.3568 39.8083 39.7641 39.425C40.1714 39.0417 40.375 38.5667 40.375 38C40.375 37.4333 40.1714 36.9583 39.7641 36.575C39.3568 36.1917 38.8521 36 38.25 36C37.6479 36 37.1432 36.1917 36.7359 36.575C36.3286 36.9583 36.125 37.4333 36.125 38C36.125 38.5667 36.3286 39.0417 36.7359 39.425C37.1432 39.8083 37.6479 40 38.25 40Z" fill="#1D1B20"/>
</svg>
