<svg width="25" height="25" viewBox="0 0 25 25" fill="none" xmlns="http://www.w3.org/2000/svg">
<path d="M4.16675 19.7917V17.7083H6.25008V10.4167C6.25008 8.97569 6.68411 7.69965 7.55217 6.58854C8.42022 5.46007 9.54869 4.72222 10.9376 4.375V3.64583C10.9376 3.2118 11.0852 2.84722 11.3803 2.55208C11.6928 2.23958 12.0661 2.08333 12.5001 2.08333C12.9341 2.08333 13.2987 2.23958 13.5938 2.55208C13.9063 2.84722 14.0626 3.2118 14.0626 3.64583V4.375C15.4515 4.72222 16.5799 5.46007 17.448 6.58854C18.3161 7.69965 18.7501 8.97569 18.7501 10.4167V17.7083H20.8334V19.7917H4.16675ZM12.5001 22.9167C11.9272 22.9167 11.4324 22.717 11.0157 22.3177C10.6164 21.901 10.4167 21.4062 10.4167 20.8333H14.5834C14.5834 21.4062 14.3751 21.901 13.9584 22.3177C13.5591 22.717 13.073 22.9167 12.5001 22.9167ZM8.33342 17.7083H16.6667V10.4167C16.6667 9.27083 16.2588 8.28993 15.4428 7.47396C14.6268 6.65798 13.6459 6.25 12.5001 6.25C11.3542 6.25 10.3733 6.65798 9.55737 7.47396C8.7414 8.28993 8.33342 9.27083 8.33342 10.4167V17.7083Z" fill="#1D1B20"/>
</svg>
