<svg width="52" height="50" viewBox="0 0 52 50" fill="none" xmlns="http://www.w3.org/2000/svg">
<path d="M12.6752 35.6251C14.5168 34.2709 16.5752 33.2032 18.8502 32.422C21.1252 31.6407 23.5085 31.2501 26.0002 31.2501C28.4918 31.2501 30.8752 31.6407 33.1502 32.422C35.4252 33.2032 37.4835 34.2709 39.3252 35.6251C40.5891 34.2015 41.5731 32.5869 42.2772 30.7813C42.9814 28.9758 43.3335 27.0487 43.3335 25.0001C43.3335 20.382 41.6453 16.4497 38.2689 13.2032C34.8925 9.95668 30.8029 8.33341 26.0002 8.33341C21.1974 8.33341 17.1078 9.95668 13.7314 13.2032C10.355 16.4497 8.66683 20.382 8.66683 25.0001C8.66683 27.0487 9.01891 28.9758 9.72308 30.7813C10.4272 32.5869 11.4113 34.2015 12.6752 35.6251ZM26.0002 27.0834C23.8696 27.0834 22.0731 26.3803 20.6106 24.974C19.1481 23.5678 18.4168 21.8404 18.4168 19.7917C18.4168 17.7431 19.1481 16.0157 20.6106 14.6095C22.0731 13.2032 23.8696 12.5001 26.0002 12.5001C28.1307 12.5001 29.9272 13.2032 31.3897 14.6095C32.8522 16.0157 33.5835 17.7431 33.5835 19.7917C33.5835 21.8404 32.8522 23.5678 31.3897 24.974C29.9272 26.3803 28.1307 27.0834 26.0002 27.0834ZM26.0002 45.8334C23.0029 45.8334 20.1863 45.2865 17.5502 44.1928C14.9141 43.099 12.621 41.6147 10.671 39.7397C8.721 37.8647 7.17725 35.6598 6.03975 33.1251C4.90225 30.5904 4.3335 27.882 4.3335 25.0001C4.3335 22.1181 4.90225 19.4098 6.03975 16.8751C7.17725 14.3404 8.721 12.1355 10.671 10.2605C12.621 8.3855 14.9141 6.90112 17.5502 5.80737C20.1863 4.71362 23.0029 4.16675 26.0002 4.16675C28.9974 4.16675 31.8141 4.71362 34.4502 5.80737C37.0863 6.90112 39.3793 8.3855 41.3293 10.2605C43.2793 12.1355 44.8231 14.3404 45.9606 16.8751C47.0981 19.4098 47.6668 22.1181 47.6668 25.0001C47.6668 27.882 47.0981 30.5904 45.9606 33.1251C44.8231 35.6598 43.2793 37.8647 41.3293 39.7397C39.3793 41.6147 37.0863 43.099 34.4502 44.1928C31.8141 45.2865 28.9974 45.8334 26.0002 45.8334Z" fill="#1D1B20"/>
</svg>
