<svg width="52" height="50" viewBox="0 0 52 50" fill="none" xmlns="http://www.w3.org/2000/svg">
<path d="M12.6752 35.6248C14.5168 34.2707 16.5752 33.203 18.8502 32.4217C21.1252 31.6405 23.5085 31.2498 26.0002 31.2498C28.4918 31.2498 30.8752 31.6405 33.1502 32.4217C35.4252 33.203 37.4835 34.2707 39.3252 35.6248C40.5891 34.2012 41.5731 32.5866 42.2772 30.7811C42.9814 28.9755 43.3335 27.0484 43.3335 24.9998C43.3335 20.3818 41.6453 16.4495 38.2689 13.203C34.8925 9.95643 30.8029 8.33317 26.0002 8.33317C21.1974 8.33317 17.1078 9.95643 13.7314 13.203C10.355 16.4495 8.66683 20.3818 8.66683 24.9998C8.66683 27.0484 9.01891 28.9755 9.72308 30.7811C10.4272 32.5866 11.4113 34.2012 12.6752 35.6248ZM26.0002 27.0832C23.8696 27.0832 22.0731 26.38 20.6106 24.9738C19.1481 23.5675 18.4168 21.8401 18.4168 19.7915C18.4168 17.7429 19.1481 16.0155 20.6106 14.6092C22.0731 13.203 23.8696 12.4998 26.0002 12.4998C28.1307 12.4998 29.9272 13.203 31.3897 14.6092C32.8522 16.0155 33.5835 17.7429 33.5835 19.7915C33.5835 21.8401 32.8522 23.5675 31.3897 24.9738C29.9272 26.38 28.1307 27.0832 26.0002 27.0832ZM26.0002 45.8332C23.0029 45.8332 20.1863 45.2863 17.5502 44.1925C14.9141 43.0988 12.621 41.6144 10.671 39.7394C8.721 37.8644 7.17725 35.6596 6.03975 33.1248C4.90225 30.5901 4.3335 27.8818 4.3335 24.9998C4.3335 22.1179 4.90225 19.4096 6.03975 16.8748C7.17725 14.3401 8.721 12.1353 10.671 10.2603C12.621 8.38525 14.9141 6.90088 17.5502 5.80713C20.1863 4.71338 23.0029 4.1665 26.0002 4.1665C28.9974 4.1665 31.8141 4.71338 34.4502 5.80713C37.0863 6.90088 39.3793 8.38525 41.3293 10.2603C43.2793 12.1353 44.8231 14.3401 45.9606 16.8748C47.0981 19.4096 47.6668 22.1179 47.6668 24.9998C47.6668 27.8818 47.0981 30.5901 45.9606 33.1248C44.8231 35.6596 43.2793 37.8644 41.3293 39.7394C39.3793 41.6144 37.0863 43.0988 34.4502 44.1925C31.8141 45.2863 28.9974 45.8332 26.0002 45.8332Z" fill="#1D1B20"/>
</svg>
