<svg width="25" height="25" viewBox="0 0 25 25" fill="none" xmlns="http://www.w3.org/2000/svg">
<path d="M4.16675 19.7916V17.7083H6.25008V10.4166C6.25008 8.97561 6.68411 7.69957 7.55216 6.58846C8.42022 5.45999 9.54869 4.72214 10.9376 4.37492V3.64575C10.9376 3.21172 11.0852 2.84714 11.3803 2.552C11.6928 2.2395 12.0661 2.08325 12.5001 2.08325C12.9341 2.08325 13.2987 2.2395 13.5938 2.552C13.9063 2.84714 14.0626 3.21172 14.0626 3.64575V4.37492C15.4515 4.72214 16.5799 5.45999 17.448 6.58846C18.3161 7.69957 18.7501 8.97561 18.7501 10.4166V17.7083H20.8334V19.7916H4.16675ZM12.5001 22.9166C11.9272 22.9166 11.4324 22.7169 11.0157 22.3176C10.6164 21.901 10.4167 21.4062 10.4167 20.8333H14.5834C14.5834 21.4062 14.3751 21.901 13.9584 22.3176C13.5591 22.7169 13.073 22.9166 12.5001 22.9166ZM8.33342 17.7083H16.6667V10.4166C16.6667 9.27075 16.2588 8.28985 15.4428 7.47388C14.6268 6.6579 13.6459 6.24992 12.5001 6.24992C11.3542 6.24992 10.3733 6.6579 9.55737 7.47388C8.7414 8.28985 8.33342 9.27075 8.33342 10.4166V17.7083Z" fill="#1D1B20"/>
</svg>
