<svg width="52" height="50" viewBox="0 0 52 50" fill="none" xmlns="http://www.w3.org/2000/svg">
<path d="M20.0418 45.8332L19.1751 39.1665C18.7057 38.9929 18.2633 38.7846 17.848 38.5415C17.4327 38.2984 17.0265 38.038 16.6293 37.7603L10.1834 40.3644L4.2251 30.4686L9.80426 26.4061C9.76815 26.163 9.7501 25.9287 9.7501 25.703V24.2967C9.7501 24.071 9.76815 23.8366 9.80426 23.5936L4.2251 19.5311L10.1834 9.63525L16.6293 12.2394C17.0265 11.9616 17.4418 11.7012 17.8751 11.4582C18.3084 11.2151 18.7418 11.0068 19.1751 10.8332L20.0418 4.1665H31.9584L32.8251 10.8332C33.2945 11.0068 33.7369 11.2151 34.1522 11.4582C34.5675 11.7012 34.9737 11.9616 35.3709 12.2394L41.8168 9.63525L47.7751 19.5311L42.1959 23.5936C42.232 23.8366 42.2501 24.071 42.2501 24.2967V25.703C42.2501 25.9287 42.214 26.163 42.1418 26.4061L47.7209 30.4686L41.7626 40.3644L35.3709 37.7603C34.9737 38.038 34.5584 38.2984 34.1251 38.5415C33.6918 38.7846 33.2584 38.9929 32.8251 39.1665L31.9584 45.8332H20.0418ZM26.1084 32.2915C28.2029 32.2915 29.9904 31.5797 31.4709 30.1561C32.9515 28.7325 33.6918 27.0137 33.6918 24.9998C33.6918 22.9859 32.9515 21.2672 31.4709 19.8436C29.9904 18.42 28.2029 17.7082 26.1084 17.7082C23.9779 17.7082 22.1813 18.42 20.7188 19.8436C19.2563 21.2672 18.5251 22.9859 18.5251 24.9998C18.5251 27.0137 19.2563 28.7325 20.7188 30.1561C22.1813 31.5797 23.9779 32.2915 26.1084 32.2915Z" fill="#1D1B20"/>
</svg>
