<svg width="52" height="50" viewBox="0 0 52 50" fill="none" xmlns="http://www.w3.org/2000/svg">
<path d="M12.675 35.625C14.5166 34.2709 16.575 33.2031 18.85 32.4219C21.125 31.6406 23.5083 31.25 26 31.25C28.4916 31.25 30.875 31.6406 33.15 32.4219C35.425 33.2031 37.4833 34.2709 39.325 35.625C40.5889 34.2014 41.5729 32.5868 42.2771 30.7813C42.9812 28.9757 43.3333 27.0486 43.3333 25C43.3333 20.382 41.6451 16.4497 38.2687 13.2031C34.8923 9.95662 30.8028 8.33335 26 8.33335C21.1972 8.33335 17.1076 9.95662 13.7312 13.2031C10.3548 16.4497 8.66665 20.382 8.66665 25C8.66665 27.0486 9.01873 28.9757 9.7229 30.7813C10.4271 32.5868 11.4111 34.2014 12.675 35.625ZM26 27.0834C23.8694 27.0834 22.0729 26.3802 20.6104 24.974C19.1479 23.5677 18.4166 21.8403 18.4166 19.7917C18.4166 17.7431 19.1479 16.0156 20.6104 14.6094C22.0729 13.2031 23.8694 12.5 26 12.5C28.1305 12.5 29.9271 13.2031 31.3896 14.6094C32.8521 16.0156 33.5833 17.7431 33.5833 19.7917C33.5833 21.8403 32.8521 23.5677 31.3896 24.974C29.9271 26.3802 28.1305 27.0834 26 27.0834ZM26 45.8334C23.0028 45.8334 20.1861 45.2865 17.55 44.1927C14.9139 43.099 12.6208 41.6146 10.6708 39.7396C8.72081 37.8646 7.17706 35.6597 6.03956 33.125C4.90206 30.5903 4.33331 27.882 4.33331 25C4.33331 22.1181 4.90206 19.4097 6.03956 16.875C7.17706 14.3403 8.72081 12.1354 10.6708 10.2604C12.6208 8.38544 14.9139 6.90106 17.55 5.80731C20.1861 4.71356 23.0028 4.16669 26 4.16669C28.9972 4.16669 31.8139 4.71356 34.45 5.80731C37.0861 6.90106 39.3791 8.38544 41.3291 10.2604C43.2791 12.1354 44.8229 14.3403 45.9604 16.875C47.0979 19.4097 47.6666 22.1181 47.6666 25C47.6666 27.882 47.0979 30.5903 45.9604 33.125C44.8229 35.6597 43.2791 37.8646 41.3291 39.7396C39.3791 41.6146 37.0861 43.099 34.45 44.1927C31.8139 45.2865 28.9972 45.8334 26 45.8334Z" fill="#1D1B20"/>
</svg>
