<svg width="25" height="25" viewBox="0 0 25 25" fill="none" xmlns="http://www.w3.org/2000/svg">
<path d="M4.16666 19.7917V17.7083H6.24999V10.4167C6.24999 8.97569 6.68402 7.69965 7.55207 6.58854C8.42013 5.46007 9.5486 4.72222 10.9375 4.375V3.64583C10.9375 3.2118 11.0851 2.84722 11.3802 2.55208C11.6927 2.23958 12.066 2.08333 12.5 2.08333C12.934 2.08333 13.2986 2.23958 13.5937 2.55208C13.9062 2.84722 14.0625 3.2118 14.0625 3.64583V4.375C15.4514 4.72222 16.5799 5.46007 17.4479 6.58854C18.316 7.69965 18.75 8.97569 18.75 10.4167V17.7083H20.8333V19.7917H4.16666ZM12.5 22.9167C11.9271 22.9167 11.4323 22.717 11.0156 22.3177C10.6163 21.901 10.4167 21.4063 10.4167 20.8333H14.5833C14.5833 21.4063 14.375 21.901 13.9583 22.3177C13.559 22.717 13.0729 22.9167 12.5 22.9167ZM8.33332 17.7083H16.6667V10.4167C16.6667 9.27083 16.2587 8.28993 15.4427 7.47396C14.6267 6.65798 13.6458 6.25 12.5 6.25C11.3542 6.25 10.3733 6.65798 9.55728 7.47396C8.74131 8.28993 8.33332 9.27083 8.33332 10.4167V17.7083Z" fill="#1D1B20"/>
</svg>
