<svg width="52" height="50" viewBox="0 0 52 50" fill="none" xmlns="http://www.w3.org/2000/svg">
<path d="M12.6749 35.625C14.5166 34.2709 16.5749 33.2031 18.8499 32.4219C21.1249 31.6406 23.5083 31.25 25.9999 31.25C28.4916 31.25 30.8749 31.6406 33.1499 32.4219C35.4249 33.2031 37.4833 34.2709 39.3249 35.625C40.5888 34.2014 41.5728 32.5868 42.277 30.7813C42.9812 28.9757 43.3333 27.0486 43.3333 25C43.3333 20.382 41.6451 16.4497 38.2687 13.2031C34.8923 9.95662 30.8027 8.33335 25.9999 8.33335C21.1971 8.33335 17.1076 9.95662 13.7312 13.2031C10.3548 16.4497 8.66659 20.382 8.66659 25C8.66659 27.0486 9.01867 28.9757 9.72284 30.7813C10.427 32.5868 11.411 34.2014 12.6749 35.625ZM25.9999 27.0834C23.8694 27.0834 22.0728 26.3802 20.6103 24.974C19.1478 23.5677 18.4166 21.8403 18.4166 19.7917C18.4166 17.7431 19.1478 16.0156 20.6103 14.6094C22.0728 13.2031 23.8694 12.5 25.9999 12.5C28.1305 12.5 29.927 13.2031 31.3895 14.6094C32.852 16.0156 33.5833 17.7431 33.5833 19.7917C33.5833 21.8403 32.852 23.5677 31.3895 24.974C29.927 26.3802 28.1305 27.0834 25.9999 27.0834ZM25.9999 45.8334C23.0027 45.8334 20.186 45.2865 17.5499 44.1927C14.9138 43.099 12.6208 41.6146 10.6708 39.7396C8.72075 37.8646 7.177 35.6597 6.0395 33.125C4.902 30.5903 4.33325 27.882 4.33325 25C4.33325 22.1181 4.902 19.4097 6.0395 16.875C7.177 14.3403 8.72075 12.1354 10.6708 10.2604C12.6208 8.38544 14.9138 6.90106 17.5499 5.80731C20.186 4.71356 23.0027 4.16669 25.9999 4.16669C28.9971 4.16669 31.8138 4.71356 34.4499 5.80731C37.086 6.90106 39.3791 8.38544 41.3291 10.2604C43.2791 12.1354 44.8228 14.3403 45.9603 16.875C47.0978 19.4097 47.6666 22.1181 47.6666 25C47.6666 27.882 47.0978 30.5903 45.9603 33.125C44.8228 35.6597 43.2791 37.8646 41.3291 39.7396C39.3791 41.6146 37.086 43.099 34.4499 44.1927C31.8138 45.2865 28.9971 45.8334 25.9999 45.8334Z" fill="#1D1B20"/>
</svg>
