<svg width="52" height="50" viewBox="0 0 52 50" fill="none" xmlns="http://www.w3.org/2000/svg">
<path d="M12.675 35.6248C14.5166 34.2707 16.575 33.203 18.85 32.4217C21.125 31.6405 23.5083 31.2498 26 31.2498C28.4916 31.2498 30.875 31.6405 33.15 32.4217C35.425 33.203 37.4833 34.2707 39.325 35.6248C40.5889 34.2012 41.5729 32.5866 42.2771 30.7811C42.9812 28.9755 43.3333 27.0484 43.3333 24.9998C43.3333 20.3818 41.6451 16.4495 38.2687 13.203C34.8923 9.95643 30.8028 8.33317 26 8.33317C21.1972 8.33317 17.1076 9.95643 13.7312 13.203C10.3548 16.4495 8.66665 20.3818 8.66665 24.9998C8.66665 27.0484 9.01873 28.9755 9.7229 30.7811C10.4271 32.5866 11.4111 34.2012 12.675 35.6248ZM26 27.0832C23.8694 27.0832 22.0729 26.38 20.6104 24.9738C19.1479 23.5675 18.4166 21.8401 18.4166 19.7915C18.4166 17.7429 19.1479 16.0155 20.6104 14.6092C22.0729 13.203 23.8694 12.4998 26 12.4998C28.1305 12.4998 29.9271 13.203 31.3896 14.6092C32.8521 16.0155 33.5833 17.7429 33.5833 19.7915C33.5833 21.8401 32.8521 23.5675 31.3896 24.9738C29.9271 26.38 28.1305 27.0832 26 27.0832ZM26 45.8332C23.0028 45.8332 20.1861 45.2863 17.55 44.1925C14.9139 43.0988 12.6208 41.6144 10.6708 39.7394C8.72081 37.8644 7.17706 35.6596 6.03956 33.1248C4.90206 30.5901 4.33331 27.8818 4.33331 24.9998C4.33331 22.1179 4.90206 19.4096 6.03956 16.8748C7.17706 14.3401 8.72081 12.1353 10.6708 10.2603C12.6208 8.38525 14.9139 6.90088 17.55 5.80713C20.1861 4.71338 23.0028 4.1665 26 4.1665C28.9972 4.1665 31.8139 4.71338 34.45 5.80713C37.0861 6.90088 39.3791 8.38525 41.3291 10.2603C43.2791 12.1353 44.8229 14.3401 45.9604 16.8748C47.0979 19.4096 47.6666 22.1179 47.6666 24.9998C47.6666 27.8818 47.0979 30.5901 45.9604 33.1248C44.8229 35.6596 43.2791 37.8644 41.3291 39.7394C39.3791 41.6144 37.0861 43.0988 34.45 44.1925C31.8139 45.2863 28.9972 45.8332 26 45.8332Z" fill="#1D1B20"/>
</svg>
