<svg width="45" height="44" viewBox="0 0 45 44" fill="none" xmlns="http://www.w3.org/2000/svg">
<path d="M22.5 25.6667C20.9375 25.6667 19.6094 25.132 18.5156 24.0626C17.4219 22.9931 16.875 21.6945 16.875 20.1667V9.16675C16.875 7.63897 17.4219 6.34036 18.5156 5.27091C19.6094 4.20147 20.9375 3.66675 22.5 3.66675C24.0625 3.66675 25.3906 4.20147 26.4844 5.27091C27.5781 6.34036 28.125 7.63897 28.125 9.16675V20.1667C28.125 21.6945 27.5781 22.9931 26.4844 24.0626C25.3906 25.132 24.0625 25.6667 22.5 25.6667ZM20.625 38.5001V32.8626C17.375 32.4348 14.6875 31.014 12.5625 28.6001C10.4375 26.1862 9.375 23.3751 9.375 20.1667H13.125C13.125 22.7029 14.0391 24.8647 15.8672 26.6522C17.6953 28.4397 19.9063 29.3334 22.5 29.3334C25.0937 29.3334 27.3047 28.4397 29.1328 26.6522C30.9609 24.8647 31.875 22.7029 31.875 20.1667H35.625C35.625 23.3751 34.5625 26.1862 32.4375 28.6001C30.3125 31.014 27.625 32.4348 24.375 32.8626V38.5001H20.625Z" fill="#1D1B20"/>
</svg>
