<svg width="52" height="50" viewBox="0 0 52 50" fill="none" xmlns="http://www.w3.org/2000/svg">
<path d="M20.0416 45.8332L19.175 39.1665C18.7055 38.9929 18.2632 38.7846 17.8479 38.5415C17.4326 38.2984 17.0264 38.038 16.6291 37.7603L10.1833 40.3644L4.22498 30.4686L9.80414 26.4061C9.76803 26.163 9.74998 25.9287 9.74998 25.703V24.2967C9.74998 24.071 9.76803 23.8366 9.80414 23.5936L4.22498 19.5311L10.1833 9.63525L16.6291 12.2394C17.0264 11.9616 17.4416 11.7012 17.875 11.4582C18.3083 11.2151 18.7416 11.0068 19.175 10.8332L20.0416 4.1665H31.9583L32.825 10.8332C33.2944 11.0068 33.7368 11.2151 34.1521 11.4582C34.5673 11.7012 34.9736 11.9616 35.3708 12.2394L41.8166 9.63525L47.775 19.5311L42.1958 23.5936C42.2319 23.8366 42.25 24.071 42.25 24.2967V25.703C42.25 25.9287 42.2139 26.163 42.1416 26.4061L47.7208 30.4686L41.7625 40.3644L35.3708 37.7603C34.9736 38.038 34.5583 38.2984 34.125 38.5415C33.6916 38.7846 33.2583 38.9929 32.825 39.1665L31.9583 45.8332H20.0416ZM26.1083 32.2915C28.2028 32.2915 29.9903 31.5797 31.4708 30.1561C32.9514 28.7325 33.6916 27.0137 33.6916 24.9998C33.6916 22.9859 32.9514 21.2672 31.4708 19.8436C29.9903 18.42 28.2028 17.7082 26.1083 17.7082C23.9778 17.7082 22.1812 18.42 20.7187 19.8436C19.2562 21.2672 18.525 22.9859 18.525 24.9998C18.525 27.0137 19.2562 28.7325 20.7187 30.1561C22.1812 31.5797 23.9778 32.2915 26.1083 32.2915Z" fill="#1D1B20"/>
</svg>
