<svg width="52" height="50" viewBox="0 0 52 50" fill="none" xmlns="http://www.w3.org/2000/svg">
<path d="M12.6749 35.6248C14.5166 34.2707 16.5749 33.203 18.8499 32.4217C21.1249 31.6405 23.5083 31.2498 25.9999 31.2498C28.4916 31.2498 30.8749 31.6405 33.1499 32.4217C35.4249 33.203 37.4833 34.2707 39.3249 35.6248C40.5888 34.2012 41.5728 32.5866 42.277 30.7811C42.9812 28.9755 43.3333 27.0484 43.3333 24.9998C43.3333 20.3818 41.6451 16.4495 38.2687 13.203C34.8923 9.95643 30.8027 8.33317 25.9999 8.33317C21.1971 8.33317 17.1076 9.95643 13.7312 13.203C10.3548 16.4495 8.66659 20.3818 8.66659 24.9998C8.66659 27.0484 9.01867 28.9755 9.72284 30.7811C10.427 32.5866 11.411 34.2012 12.6749 35.6248ZM25.9999 27.0832C23.8694 27.0832 22.0728 26.38 20.6103 24.9738C19.1478 23.5675 18.4166 21.8401 18.4166 19.7915C18.4166 17.7429 19.1478 16.0155 20.6103 14.6092C22.0728 13.203 23.8694 12.4998 25.9999 12.4998C28.1305 12.4998 29.927 13.203 31.3895 14.6092C32.852 16.0155 33.5833 17.7429 33.5833 19.7915C33.5833 21.8401 32.852 23.5675 31.3895 24.9738C29.927 26.38 28.1305 27.0832 25.9999 27.0832ZM25.9999 45.8332C23.0027 45.8332 20.186 45.2863 17.5499 44.1925C14.9138 43.0988 12.6208 41.6144 10.6708 39.7394C8.72075 37.8644 7.177 35.6596 6.0395 33.1248C4.902 30.5901 4.33325 27.8818 4.33325 24.9998C4.33325 22.1179 4.902 19.4096 6.0395 16.8748C7.177 14.3401 8.72075 12.1353 10.6708 10.2603C12.6208 8.38525 14.9138 6.90088 17.5499 5.80713C20.186 4.71338 23.0027 4.1665 25.9999 4.1665C28.9971 4.1665 31.8138 4.71338 34.4499 5.80713C37.086 6.90088 39.3791 8.38525 41.3291 10.2603C43.2791 12.1353 44.8228 14.3401 45.9603 16.8748C47.0978 19.4096 47.6666 22.1179 47.6666 24.9998C47.6666 27.8818 47.0978 30.5901 45.9603 33.1248C44.8228 35.6596 43.2791 37.8644 41.3291 39.7394C39.3791 41.6144 37.086 43.0988 34.4499 44.1925C31.8138 45.2863 28.9971 45.8332 25.9999 45.8332Z" fill="#1D1B20"/>
</svg>
