<svg width="33" height="33" viewBox="0 0 33 33" fill="none" xmlns="http://www.w3.org/2000/svg">
<path d="M8.25 16.5H19.25C20.7087 16.5 22.1076 15.9205 23.1391 14.8891C24.1705 13.8576 24.75 12.4587 24.75 11C24.75 9.54131 24.1705 8.14236 23.1391 7.11091C22.1076 6.07946 20.7087 5.5 19.25 5.5H8.25V16.5ZM8.25 16.5H20.625C22.0837 16.5 23.4826 17.0795 24.5141 18.1109C25.5455 19.1424 26.125 20.5413 26.125 22C26.125 23.4587 25.5455 24.8576 24.5141 25.8891C23.4826 26.9205 22.0837 27.5 20.625 27.5H8.25V16.5Z" stroke="#1E1E1E" stroke-width="4" stroke-linecap="round" stroke-linejoin="round"/>
</svg>
