<svg width="17" height="21" viewBox="0 0 17 21" fill="none" xmlns="http://www.w3.org/2000/svg">
<path d="M0 17.7083V15.625H2.08333V8.33333C2.08333 6.89236 2.51736 5.61632 3.38542 4.50521C4.25347 3.37674 5.38195 2.63889 6.77083 2.29167V1.5625C6.77083 1.12847 6.9184 0.763888 7.21354 0.468749C7.52604 0.15625 7.89931 0 8.33333 0C8.76736 0 9.13195 0.15625 9.42708 0.468749C9.73958 0.763888 9.89583 1.12847 9.89583 1.5625V2.29167C11.2847 2.63889 12.4132 3.37674 13.2813 4.50521C14.1493 5.61632 14.5833 6.89236 14.5833 8.33333V15.625H16.6667V17.7083H0ZM8.33333 20.8333C7.76042 20.8333 7.26563 20.6337 6.84896 20.2344C6.44965 19.8177 6.25 19.3229 6.25 18.75H10.4167C10.4167 19.3229 10.2083 19.8177 9.79167 20.2344C9.39236 20.6337 8.90625 20.8333 8.33333 20.8333ZM4.16667 15.625H12.5V8.33333C12.5 7.1875 12.092 6.2066 11.276 5.39062C10.4601 4.57465 9.47917 4.16667 8.33333 4.16667C7.1875 4.16667 6.2066 4.57465 5.39063 5.39062C4.57465 6.2066 4.16667 7.1875 4.16667 8.33333V15.625Z" fill="#1D1B20"/>
</svg>
