<svg width="36" height="36" viewBox="0 0 36 36" fill="none" xmlns="http://www.w3.org/2000/svg">
<path d="M12 4.5V9C12 9.79565 11.6839 10.5587 11.1213 11.1213C10.5587 11.6839 9.79565 12 9 12H4.5M31.5 12H27C26.2044 12 25.4413 11.6839 24.8787 11.1213C24.3161 10.5587 24 9.79565 24 9V4.5M24 31.5V27C24 26.2044 24.3161 25.4413 24.8787 24.8787C25.4413 24.3161 26.2044 24 27 24H31.5M4.5 24H9C9.79565 24 10.5587 24.3161 11.1213 24.8787C11.6839 25.4413 12 26.2044 12 27V31.5" stroke="#1E1E1E" stroke-width="4" stroke-linecap="round" stroke-linejoin="round"/>
</svg>
