<svg width="159" height="146" viewBox="0 0 159 146" fill="none" xmlns="http://www.w3.org/2000/svg">
<path d="M0.804443 145.163C20.9675 145.163 46.1044 146.977 52.7267 123.799C55.8727 112.788 57.5425 101.531 57.5425 90.0012C57.5425 84.583 56.3514 77.5161 57.8927 72.3143C59.5296 66.7898 57.7082 53.5447 61.0448 49.374C63.0602 46.8547 63.8467 37.5258 63.8467 34.0512C63.8467 29.278 67.3858 22.8465 68.6624 18.3782C69.7919 14.4251 73.8866 12.045 76.4551 8.83429C79.1468 5.46976 86.6309 7.14703 89.0636 4.10612C93.7213 -1.71602 115.534 1.74204 122.511 1.74204C134.477 1.74204 146.444 1.74204 158.41 1.74204" stroke="black" stroke-width="3" stroke-linecap="round"/>
</svg>
