<svg width="25" height="25" viewBox="0 0 25 25" fill="none" xmlns="http://www.w3.org/2000/svg">
<path d="M4.1665 19.7917V17.7084H6.24984V10.4167C6.24984 8.97574 6.68387 7.69969 7.55192 6.58858C8.41998 5.46011 9.54845 4.72226 10.9373 4.37504V3.64587C10.9373 3.21185 11.0849 2.84726 11.38 2.55212C11.6925 2.23962 12.0658 2.08337 12.4998 2.08337C12.9339 2.08337 13.2984 2.23962 13.5936 2.55212C13.9061 2.84726 14.0623 3.21185 14.0623 3.64587V4.37504C15.4512 4.72226 16.5797 5.46011 17.4478 6.58858C18.3158 7.69969 18.7498 8.97574 18.7498 10.4167V17.7084H20.8332V19.7917H4.1665ZM12.4998 22.9167C11.9269 22.9167 11.4321 22.7171 11.0155 22.3177C10.6162 21.9011 10.4165 21.4063 10.4165 20.8334H14.5832C14.5832 21.4063 14.3748 21.9011 13.9582 22.3177C13.5589 22.7171 13.0728 22.9167 12.4998 22.9167ZM8.33317 17.7084H16.6665V10.4167C16.6665 9.27087 16.2585 8.28997 15.4425 7.474C14.6266 6.65803 13.6457 6.25004 12.4998 6.25004C11.354 6.25004 10.3731 6.65803 9.55713 7.474C8.74116 8.28997 8.33317 9.27087 8.33317 10.4167V17.7084Z" fill="#1D1B20"/>
</svg>
