<svg width="52" height="50" viewBox="0 0 52 50" fill="none" xmlns="http://www.w3.org/2000/svg">
<g opacity="0.5">
<path d="M20.0416 45.8334L19.175 39.1667C18.7055 38.9931 18.2632 38.7848 17.8479 38.5417C17.4326 38.2987 17.0264 38.0383 16.6291 37.7605L10.1833 40.3647L4.22498 30.4688L9.80414 26.4063C9.76803 26.1633 9.74998 25.9289 9.74998 25.7032V24.297C9.74998 24.0713 9.76803 23.8369 9.80414 23.5938L4.22498 19.5313L10.1833 9.6355L16.6291 12.2397C17.0264 11.9619 17.4416 11.7015 17.875 11.4584C18.3083 11.2154 18.7416 11.007 19.175 10.8334L20.0416 4.16675H31.9583L32.825 10.8334C33.2944 11.007 33.7368 11.2154 34.1521 11.4584C34.5673 11.7015 34.9736 11.9619 35.3708 12.2397L41.8166 9.6355L47.775 19.5313L42.1958 23.5938C42.2319 23.8369 42.25 24.0713 42.25 24.297V25.7032C42.25 25.9289 42.2139 26.1633 42.1416 26.4063L47.7208 30.4688L41.7625 40.3647L35.3708 37.7605C34.9736 38.0383 34.5583 38.2987 34.125 38.5417C33.6916 38.7848 33.2583 38.9931 32.825 39.1667L31.9583 45.8334H20.0416ZM26.1083 32.2917C28.2028 32.2917 29.9903 31.5799 31.4708 30.1563C32.9514 28.7327 33.6916 27.014 33.6916 25.0001C33.6916 22.9862 32.9514 21.2674 31.4708 19.8438C29.9903 18.4202 28.2028 17.7084 26.1083 17.7084C23.9778 17.7084 22.1812 18.4202 20.7187 19.8438C19.2562 21.2674 18.525 22.9862 18.525 25.0001C18.525 27.014 19.2562 28.7327 20.7187 30.1563C22.1812 31.5799 23.9778 32.2917 26.1083 32.2917Z" fill="#1D1B20"/>
</g>
</svg>
