<svg width="52" height="50" viewBox="0 0 52 50" fill="none" xmlns="http://www.w3.org/2000/svg">
<path d="M12.6749 35.6251C14.5166 34.2709 16.5749 33.2032 18.8499 32.422C21.1249 31.6407 23.5083 31.2501 25.9999 31.2501C28.4916 31.2501 30.8749 31.6407 33.1499 32.422C35.4249 33.2032 37.4833 34.2709 39.3249 35.6251C40.5888 34.2015 41.5728 32.5869 42.277 30.7813C42.9812 28.9758 43.3333 27.0487 43.3333 25.0001C43.3333 20.382 41.6451 16.4497 38.2687 13.2032C34.8923 9.95668 30.8027 8.33341 25.9999 8.33341C21.1971 8.33341 17.1076 9.95668 13.7312 13.2032C10.3548 16.4497 8.66659 20.382 8.66659 25.0001C8.66659 27.0487 9.01867 28.9758 9.72284 30.7813C10.427 32.5869 11.411 34.2015 12.6749 35.6251ZM25.9999 27.0834C23.8694 27.0834 22.0728 26.3803 20.6103 24.974C19.1478 23.5678 18.4166 21.8404 18.4166 19.7917C18.4166 17.7431 19.1478 16.0157 20.6103 14.6095C22.0728 13.2032 23.8694 12.5001 25.9999 12.5001C28.1305 12.5001 29.927 13.2032 31.3895 14.6095C32.852 16.0157 33.5833 17.7431 33.5833 19.7917C33.5833 21.8404 32.852 23.5678 31.3895 24.974C29.927 26.3803 28.1305 27.0834 25.9999 27.0834ZM25.9999 45.8334C23.0027 45.8334 20.186 45.2865 17.5499 44.1928C14.9138 43.099 12.6208 41.6147 10.6708 39.7397C8.72075 37.8647 7.177 35.6598 6.0395 33.1251C4.902 30.5904 4.33325 27.882 4.33325 25.0001C4.33325 22.1181 4.902 19.4098 6.0395 16.8751C7.177 14.3404 8.72075 12.1355 10.6708 10.2605C12.6208 8.3855 14.9138 6.90112 17.5499 5.80737C20.186 4.71362 23.0027 4.16675 25.9999 4.16675C28.9971 4.16675 31.8138 4.71362 34.4499 5.80737C37.086 6.90112 39.3791 8.3855 41.3291 10.2605C43.2791 12.1355 44.8228 14.3404 45.9603 16.8751C47.0978 19.4098 47.6666 22.1181 47.6666 25.0001C47.6666 27.882 47.0978 30.5904 45.9603 33.1251C44.8228 35.6598 43.2791 37.8647 41.3291 39.7397C39.3791 41.6147 37.086 43.099 34.4499 44.1928C31.8138 45.2865 28.9971 45.8334 25.9999 45.8334Z" fill="#1D1B20"/>
</svg>
