<svg width="52" height="50" viewBox="0 0 52 50" fill="none" xmlns="http://www.w3.org/2000/svg">
<path d="M12.675 35.6251C14.5166 34.2709 16.575 33.2032 18.85 32.422C21.125 31.6407 23.5083 31.2501 26 31.2501C28.4916 31.2501 30.875 31.6407 33.15 32.422C35.425 33.2032 37.4833 34.2709 39.325 35.6251C40.5889 34.2015 41.5729 32.5869 42.2771 30.7813C42.9812 28.9758 43.3333 27.0487 43.3333 25.0001C43.3333 20.382 41.6451 16.4497 38.2687 13.2032C34.8923 9.95668 30.8028 8.33341 26 8.33341C21.1972 8.33341 17.1076 9.95668 13.7312 13.2032C10.3548 16.4497 8.66665 20.382 8.66665 25.0001C8.66665 27.0487 9.01873 28.9758 9.7229 30.7813C10.4271 32.5869 11.4111 34.2015 12.675 35.6251ZM26 27.0834C23.8694 27.0834 22.0729 26.3803 20.6104 24.974C19.1479 23.5678 18.4166 21.8404 18.4166 19.7917C18.4166 17.7431 19.1479 16.0157 20.6104 14.6095C22.0729 13.2032 23.8694 12.5001 26 12.5001C28.1305 12.5001 29.9271 13.2032 31.3896 14.6095C32.8521 16.0157 33.5833 17.7431 33.5833 19.7917C33.5833 21.8404 32.8521 23.5678 31.3896 24.974C29.9271 26.3803 28.1305 27.0834 26 27.0834ZM26 45.8334C23.0028 45.8334 20.1861 45.2865 17.55 44.1928C14.9139 43.099 12.6208 41.6147 10.6708 39.7397C8.72081 37.8647 7.17706 35.6598 6.03956 33.1251C4.90206 30.5904 4.33331 27.882 4.33331 25.0001C4.33331 22.1181 4.90206 19.4098 6.03956 16.8751C7.17706 14.3404 8.72081 12.1355 10.6708 10.2605C12.6208 8.3855 14.9139 6.90112 17.55 5.80737C20.1861 4.71362 23.0028 4.16675 26 4.16675C28.9972 4.16675 31.8139 4.71362 34.45 5.80737C37.0861 6.90112 39.3791 8.3855 41.3291 10.2605C43.2791 12.1355 44.8229 14.3404 45.9604 16.8751C47.0979 19.4098 47.6666 22.1181 47.6666 25.0001C47.6666 27.882 47.0979 30.5904 45.9604 33.1251C44.8229 35.6598 43.2791 37.8647 41.3291 39.7397C39.3791 41.6147 37.0861 43.099 34.45 44.1928C31.8139 45.2865 28.9972 45.8334 26 45.8334Z" fill="#1D1B20"/>
</svg>
