<svg width="25" height="25" viewBox="0 0 25 25" fill="none" xmlns="http://www.w3.org/2000/svg">
<path d="M4.16666 19.7916V17.7083H6.24999V10.4166C6.24999 8.97561 6.68402 7.69957 7.55207 6.58846C8.42013 5.45999 9.5486 4.72214 10.9375 4.37492V3.64575C10.9375 3.21172 11.0851 2.84714 11.3802 2.552C11.6927 2.2395 12.066 2.08325 12.5 2.08325C12.934 2.08325 13.2986 2.2395 13.5937 2.552C13.9062 2.84714 14.0625 3.21172 14.0625 3.64575V4.37492C15.4514 4.72214 16.5799 5.45999 17.4479 6.58846C18.316 7.69957 18.75 8.97561 18.75 10.4166V17.7083H20.8333V19.7916H4.16666ZM12.5 22.9166C11.9271 22.9166 11.4323 22.7169 11.0156 22.3176C10.6163 21.901 10.4167 21.4062 10.4167 20.8333H14.5833C14.5833 21.4062 14.375 21.901 13.9583 22.3176C13.559 22.7169 13.0729 22.9166 12.5 22.9166ZM8.33332 17.7083H16.6667V10.4166C16.6667 9.27075 16.2587 8.28985 15.4427 7.47388C14.6267 6.6579 13.6458 6.24992 12.5 6.24992C11.3542 6.24992 10.3733 6.6579 9.55728 7.47388C8.74131 8.28985 8.33332 9.27075 8.33332 10.4166V17.7083Z" fill="#1D1B20"/>
</svg>
