<svg width="1009" height="457" viewBox="0 0 1009 457" fill="none" xmlns="http://www.w3.org/2000/svg">
<path d="M0 8C0 3.58172 3.58172 0 8 0H1001C1005.42 0 1009 3.58172 1009 8V449C1009 453.418 1005.42 457 1001 457H8.00003C3.58175 457 0 453.418 0 449V8Z" fill="white"/>
<path d="M8 0.5H1001V-0.5H8V0.5ZM1008.5 8V449H1009.5V8H1008.5ZM1001 456.5H8.00003V457.5H1001V456.5ZM0.5 449V8H-0.5V449H0.5ZM8.00003 456.5C3.85789 456.5 0.5 453.142 0.5 449H-0.5C-0.5 453.694 3.30561 457.5 8.00003 457.5V456.5ZM1008.5 449C1008.5 453.142 1005.14 456.5 1001 456.5V457.5C1005.69 457.5 1009.5 453.694 1009.5 449H1008.5ZM1001 0.5C1005.14 0.5 1008.5 3.85787 1008.5 8H1009.5C1009.5 3.30558 1005.69 -0.5 1001 -0.5V0.5ZM8 -0.5C3.30558 -0.5 -0.5 3.30558 -0.5 8H0.5C0.5 3.85786 3.85786 0.5 8 0.5V-0.5Z" fill="#D9D9D9"/>
<path d="M1003.52 444.354L997.354 450.523M1003.98 447.896L1000.9 450.981" stroke="#B3B3B3"/>
</svg>
