<svg width="25" height="25" viewBox="0 0 25 25" fill="none" xmlns="http://www.w3.org/2000/svg">
<path d="M4.1665 19.7917V17.7083H6.24984V10.4167C6.24984 8.97569 6.68387 7.69965 7.55192 6.58854C8.41998 5.46007 9.54845 4.72222 10.9373 4.375V3.64583C10.9373 3.2118 11.0849 2.84722 11.38 2.55208C11.6925 2.23958 12.0658 2.08333 12.4998 2.08333C12.9339 2.08333 13.2984 2.23958 13.5936 2.55208C13.9061 2.84722 14.0623 3.2118 14.0623 3.64583V4.375C15.4512 4.72222 16.5797 5.46007 17.4478 6.58854C18.3158 7.69965 18.7498 8.97569 18.7498 10.4167V17.7083H20.8332V19.7917H4.1665ZM12.4998 22.9167C11.9269 22.9167 11.4321 22.717 11.0155 22.3177C10.6162 21.901 10.4165 21.4062 10.4165 20.8333H14.5832C14.5832 21.4062 14.3748 21.901 13.9582 22.3177C13.5589 22.717 13.0728 22.9167 12.4998 22.9167ZM8.33317 17.7083H16.6665V10.4167C16.6665 9.27083 16.2585 8.28993 15.4425 7.47396C14.6266 6.65798 13.6457 6.25 12.4998 6.25C11.354 6.25 10.3731 6.65798 9.55713 7.47396C8.74116 8.28993 8.33317 9.27083 8.33317 10.4167V17.7083Z" fill="#1D1B20"/>
</svg>
