<svg width="52" height="50" viewBox="0 0 52 50" fill="none" xmlns="http://www.w3.org/2000/svg">
<path d="M20.0418 45.8334L19.1751 39.1667C18.7057 38.9931 18.2633 38.7847 17.848 38.5417C17.4327 38.2986 17.0265 38.0382 16.6293 37.7604L10.1834 40.3646L4.2251 30.4688L9.80426 26.4063C9.76815 26.1632 9.7501 25.9288 9.7501 25.7031V24.2969C9.7501 24.0712 9.76815 23.8368 9.80426 23.5938L4.2251 19.5313L10.1834 9.63544L16.6293 12.2396C17.0265 11.9618 17.4418 11.7014 17.8751 11.4584C18.3084 11.2153 18.7418 11.007 19.1751 10.8334L20.0418 4.16669H31.9584L32.8251 10.8334C33.2945 11.007 33.7369 11.2153 34.1522 11.4584C34.5675 11.7014 34.9737 11.9618 35.3709 12.2396L41.8168 9.63544L47.7751 19.5313L42.1959 23.5938C42.232 23.8368 42.2501 24.0712 42.2501 24.2969V25.7031C42.2501 25.9288 42.214 26.1632 42.1418 26.4063L47.7209 30.4688L41.7626 40.3646L35.3709 37.7604C34.9737 38.0382 34.5584 38.2986 34.1251 38.5417C33.6918 38.7847 33.2584 38.9931 32.8251 39.1667L31.9584 45.8334H20.0418ZM26.1084 32.2917C28.2029 32.2917 29.9904 31.5799 31.4709 30.1563C32.9515 28.7327 33.6918 27.0139 33.6918 25C33.6918 22.9861 32.9515 21.2674 31.4709 19.8438C29.9904 18.4202 28.2029 17.7084 26.1084 17.7084C23.9779 17.7084 22.1813 18.4202 20.7188 19.8438C19.2563 21.2674 18.5251 22.9861 18.5251 25C18.5251 27.0139 19.2563 28.7327 20.7188 30.1563C22.1813 31.5799 23.9779 32.2917 26.1084 32.2917Z" fill="#1D1B20"/>
</svg>
