<svg width="52" height="50" viewBox="0 0 52 50" fill="none" xmlns="http://www.w3.org/2000/svg">
<path d="M12.6749 35.625C14.5166 34.2708 16.5749 33.2031 18.8499 32.4219C21.1249 31.6406 23.5083 31.25 25.9999 31.25C28.4916 31.25 30.8749 31.6406 33.1499 32.4219C35.4249 33.2031 37.4833 34.2708 39.3249 35.625C40.5888 34.2014 41.5728 32.5868 42.277 30.7812C42.9812 28.9757 43.3333 27.0486 43.3333 25C43.3333 20.3819 41.6451 16.4496 38.2687 13.2031C34.8923 9.95659 30.8027 8.33332 25.9999 8.33332C21.1971 8.33332 17.1076 9.95659 13.7312 13.2031C10.3548 16.4496 8.66659 20.3819 8.66659 25C8.66659 27.0486 9.01867 28.9757 9.72284 30.7812C10.427 32.5868 11.411 34.2014 12.6749 35.625ZM25.9999 27.0833C23.8694 27.0833 22.0728 26.3802 20.6103 24.9739C19.1478 23.5677 18.4166 21.8403 18.4166 19.7917C18.4166 17.743 19.1478 16.0156 20.6103 14.6094C22.0728 13.2031 23.8694 12.5 25.9999 12.5C28.1305 12.5 29.927 13.2031 31.3895 14.6094C32.852 16.0156 33.5833 17.743 33.5833 19.7917C33.5833 21.8403 32.852 23.5677 31.3895 24.9739C29.927 26.3802 28.1305 27.0833 25.9999 27.0833ZM25.9999 45.8333C23.0027 45.8333 20.186 45.2864 17.5499 44.1927C14.9138 43.0989 12.6208 41.6146 10.6708 39.7396C8.72075 37.8646 7.177 35.6597 6.0395 33.125C4.902 30.5903 4.33325 27.8819 4.33325 25C4.33325 22.118 4.902 19.4097 6.0395 16.875C7.177 14.3403 8.72075 12.1354 10.6708 10.2604C12.6208 8.38541 14.9138 6.90103 17.5499 5.80728C20.186 4.71353 23.0027 4.16666 25.9999 4.16666C28.9971 4.16666 31.8138 4.71353 34.4499 5.80728C37.086 6.90103 39.3791 8.38541 41.3291 10.2604C43.2791 12.1354 44.8228 14.3403 45.9603 16.875C47.0978 19.4097 47.6666 22.118 47.6666 25C47.6666 27.8819 47.0978 30.5903 45.9603 33.125C44.8228 35.6597 43.2791 37.8646 41.3291 39.7396C39.3791 41.6146 37.086 43.0989 34.4499 44.1927C31.8138 45.2864 28.9971 45.8333 25.9999 45.8333Z" fill="#1D1B20"/>
</svg>
