<svg width="25" height="25" viewBox="0 0 25 25" fill="none" xmlns="http://www.w3.org/2000/svg">
<path d="M4.16663 19.7917V17.7084H6.24996V10.4167C6.24996 8.97574 6.68399 7.69969 7.55204 6.58858C8.4201 5.46011 9.54857 4.72226 10.9375 4.37504V3.64587C10.9375 3.21185 11.085 2.84726 11.3802 2.55212C11.6927 2.23962 12.0659 2.08337 12.5 2.08337C12.934 2.08337 13.2986 2.23962 13.5937 2.55212C13.9062 2.84726 14.0625 3.21185 14.0625 3.64587V4.37504C15.4513 4.72226 16.5798 5.46011 17.4479 6.58858C18.3159 7.69969 18.75 8.97574 18.75 10.4167V17.7084H20.8333V19.7917H4.16663ZM12.5 22.9167C11.927 22.9167 11.4323 22.7171 11.0156 22.3177C10.6163 21.9011 10.4166 21.4063 10.4166 20.8334H14.5833C14.5833 21.4063 14.375 21.9011 13.9583 22.3177C13.559 22.7171 13.0729 22.9167 12.5 22.9167ZM8.33329 17.7084H16.6666V10.4167C16.6666 9.27087 16.2586 8.28997 15.4427 7.474C14.6267 6.65803 13.6458 6.25004 12.5 6.25004C11.3541 6.25004 10.3732 6.65803 9.55725 7.474C8.74128 8.28997 8.33329 9.27087 8.33329 10.4167V17.7084Z" fill="#1D1B20"/>
</svg>
